<svg width="45" height="45" viewBox="0 0 45 45" fill="none" xmlns="http://www.w3.org/2000/svg">
<path d="M35.1564 13.3594H22.5C22.0146 13.3594 21.6211 13.7529 21.6211 14.2383C21.6211 14.7237 22.0146 15.1172 22.5 15.1172H35.1564C35.6418 15.1172 36.0353 14.7237 36.0353 14.2383C36.0353 13.7529 35.6418 13.3594 35.1564 13.3594Z" fill="#494949"/>
<path d="M32.081 17.8358C31.9175 17.6723 31.6907 17.5782 31.4596 17.5782C31.2284 17.5782 31.0017 17.6723 30.8382 17.8358C30.6747 17.9992 30.5807 18.226 30.5807 18.4572C30.5807 18.6883 30.6747 18.9151 30.8382 19.0785C31.0017 19.242 31.2284 19.3361 31.4596 19.3361C31.6907 19.3361 31.9175 19.242 32.081 19.0785C32.2445 18.9151 32.3385 18.6883 32.3385 18.4572C32.3385 18.226 32.2445 17.9992 32.081 17.8358Z" fill="#494949"/>
<path d="M23.1205 4.03694C22.9571 3.87346 22.7303 3.77942 22.4991 3.77942C22.268 3.77942 22.0412 3.87346 21.8778 4.03694C21.7143 4.20041 21.6202 4.42717 21.6202 4.65832C21.6202 4.88948 21.7143 5.11623 21.8778 5.27971C22.0412 5.44319 22.268 5.53723 22.4991 5.53723C22.7303 5.53723 22.9571 5.44319 23.1205 5.27971C23.284 5.11623 23.378 4.88948 23.378 4.65832C23.378 4.42717 23.284 4.20041 23.1205 4.03694Z" fill="#494949"/>
<path d="M27.7626 17.5781H22.5C22.0146 17.5781 21.6211 17.9716 21.6211 18.457C21.6211 18.9424 22.0146 19.3359 22.5 19.3359H27.7626C28.248 19.3359 28.6415 18.9424 28.6415 18.457C28.6415 17.9716 28.248 17.5781 27.7626 17.5781Z" fill="#494949"/>
<path d="M35.1564 22.8516H22.5C22.0146 22.8516 21.6211 23.245 21.6211 23.7305C21.6211 24.2159 22.0146 24.6094 22.5 24.6094H35.1564C35.6418 24.6094 36.0353 24.2159 36.0353 23.7305C36.0353 23.245 35.6418 22.8516 35.1564 22.8516Z" fill="#494949"/>
<path d="M32.081 27.3279C31.9175 27.1644 31.6907 27.0704 31.4596 27.0704C31.2284 27.0704 31.0017 27.1644 30.8382 27.3279C30.6747 27.4914 30.5807 27.7181 30.5807 27.9493C30.5807 28.1804 30.6747 28.4072 30.8382 28.5707C31.0017 28.7341 31.2284 28.8282 31.4596 28.8282C31.6907 28.8282 31.9175 28.7341 32.081 28.5707C32.2445 28.4072 32.3385 28.1804 32.3385 27.9493C32.3385 27.7181 32.2445 27.4914 32.081 27.3279Z" fill="#494949"/>
<path d="M27.7626 27.0703H22.5C22.0146 27.0703 21.6211 27.4637 21.6211 27.9492C21.6211 28.4346 22.0146 28.8281 22.5 28.8281H27.7626C28.248 28.8281 28.6415 28.4346 28.6415 27.9492C28.6415 27.4637 28.248 27.0703 27.7626 27.0703Z" fill="#494949"/>
<path d="M35.1564 32.3437H22.5C22.0146 32.3437 21.6211 32.7372 21.6211 33.2226C21.6211 33.708 22.0146 34.1015 22.5 34.1015H35.1564C35.6418 34.1015 36.0353 33.708 36.0353 33.2226C36.0353 32.7372 35.6418 32.3437 35.1564 32.3437Z" fill="#494949"/>
<path d="M32.081 36.8201C31.9175 36.6566 31.6907 36.5626 31.4596 36.5626C31.2284 36.5626 31.0017 36.6566 30.8382 36.8201C30.6747 36.9836 30.5807 37.2103 30.5807 37.4415C30.5807 37.6726 30.6747 37.8994 30.8382 38.0629C31.0017 38.2263 31.2284 38.3204 31.4596 38.3204C31.6907 38.3204 31.9175 38.2263 32.081 38.0629C32.2445 37.8994 32.3385 37.6726 32.3385 37.4415C32.3385 37.2103 32.2445 36.9836 32.081 36.8201Z" fill="#494949"/>
<path d="M27.7626 36.5624H22.5C22.0146 36.5624 21.6211 36.9559 21.6211 37.4413C21.6211 37.9268 22.0146 38.3202 22.5 38.3202H27.7626C28.248 38.3202 28.6415 37.9268 28.6415 37.4413C28.6415 36.9559 28.248 36.5624 27.7626 36.5624Z" fill="#494949"/>
<path d="M36.8475 3.42782H30.1345C29.1641 2.50312 27.8524 1.93359 26.4093 1.93359H25.6394C25.0508 0.768338 23.8415 0 22.5 0C21.1585 0 19.9493 0.768338 19.3606 1.93359H18.5889C17.1458 1.93359 15.8341 2.50312 14.8637 3.42782H8.15267C5.78974 3.42782 3.86731 5.35024 3.86731 7.71318V40.7146C3.86731 43.0776 5.78974 45 8.15267 45H36.8474C39.2104 45 41.1328 43.0776 41.1328 40.7146V7.71318C41.1329 5.35024 39.2104 3.42782 36.8475 3.42782ZM18.589 3.6914H19.9588C20.3542 3.6914 20.7008 3.42746 20.806 3.04646C21.0156 2.2877 21.7122 1.75781 22.5001 1.75781C23.2879 1.75781 23.9846 2.2877 24.1941 3.04646C24.2993 3.42746 24.646 3.6914 25.0413 3.6914H26.4093C28.3169 3.6914 29.8872 5.16356 30.0439 7.03132H14.9543C15.111 5.16356 16.6814 3.6914 18.589 3.6914ZM39.3751 40.7147C39.3751 42.1084 38.2412 43.2423 36.8475 43.2423H8.15267C6.75899 43.2423 5.62512 42.1084 5.62512 40.7147V7.71318C5.62512 6.3195 6.75899 5.18563 8.15267 5.18563H13.6324C13.3445 5.84586 13.1837 6.57377 13.1837 7.33894V7.91023C13.1837 8.39565 13.5772 8.78913 14.0626 8.78913H30.9357C31.4211 8.78913 31.8146 8.39565 31.8146 7.91023V7.33894C31.8146 6.57385 31.6539 5.84586 31.366 5.18563H36.8475C38.2412 5.18563 39.3751 6.3195 39.3751 7.71318V40.7147Z" fill="#494949"/>
<path d="M16.911 13.1479C16.5678 12.8047 16.0113 12.8047 15.6681 13.1478L11.9097 16.9063L10.7519 15.7484C10.4087 15.4053 9.85217 15.4053 9.50887 15.7484C9.16566 16.0916 9.16566 16.6482 9.50887 16.9915L11.2882 18.7708C11.4599 18.9425 11.6848 19.0282 11.9097 19.0282C12.1346 19.0282 12.3596 18.9425 12.5312 18.7708L16.911 14.391C17.2542 14.0477 17.2542 13.4912 16.911 13.1479Z" fill="#494949"/>
<path d="M14.7657 32.3437H10.547C10.0616 32.3437 9.66809 32.7372 9.66809 33.2226V37.4413C9.66809 37.9268 10.0616 38.3202 10.547 38.3202H14.7657C15.2512 38.3202 15.6447 37.9268 15.6447 37.4413V33.2226C15.6447 32.7372 15.2512 32.3437 14.7657 32.3437ZM13.8868 36.5624H11.4259V34.1015H13.8868V36.5624Z" fill="#494949"/>
<path d="M14.7657 22.8516H10.547C10.0616 22.8516 9.66809 23.245 9.66809 23.7305V27.9492C9.66809 28.4346 10.0616 28.8281 10.547 28.8281H14.7657C15.2512 28.8281 15.6447 28.4346 15.6447 27.9492V23.7305C15.6447 23.245 15.2512 22.8516 14.7657 22.8516ZM13.8868 27.0703H11.4259V24.6094H13.8868V27.0703Z" fill="#494949"/>
</svg>
