<svg width="39" height="46" viewBox="0 0 39 46" fill="none" xmlns="http://www.w3.org/2000/svg">
<path d="M32.9466 34.3561C32.0643 34.3561 31.2314 34.5662 30.4946 34.9356V19.4847C30.4946 19.1629 30.3793 18.8677 30.1877 18.6354C30.3628 18.1059 30.4524 17.5544 30.4524 16.9895C30.4524 15.661 29.9546 14.446 29.1347 13.5119C29.7891 12.0145 29.7396 10.7519 28.9795 10.0083C28.3773 9.41936 27.4459 9.26706 26.3167 9.56221C26.1842 8.4441 25.708 7.6593 24.9448 7.32228C24.149 6.97107 23.1993 7.16896 22.2253 7.87643C21.629 6.71206 20.7923 6.05423 19.8715 6.04883C19.8677 6.04883 19.8636 6.04883 19.8595 6.04883C18.2641 6.04883 16.9838 7.98585 16.6305 10.7904C15.9391 10.475 15.17 10.2977 14.3594 10.2977C12.959 10.2977 11.6218 10.836 10.6227 11.7704C5.83027 3.0734 3.05793 0.0314412 1.0282 1.06074C-1.2288 2.20518 0.150671 7.00552 5.95386 18.1346H5.75405C4.99702 18.1346 4.38144 18.7401 4.38144 19.4847V43.7808C4.38144 44.5251 4.99702 45.1309 5.75405 45.1309H22.0962C22.4615 45.1309 22.7578 44.8395 22.7578 44.4802C22.7578 44.1209 22.4615 43.8298 22.0962 43.8298H5.75405C5.72624 43.8298 5.70392 43.8079 5.70392 43.7808V19.4847C5.70392 19.4577 5.72624 19.4357 5.75405 19.4357H9.42074V25.8773C9.42074 30.2254 13.0171 33.7631 17.4377 33.7631C21.8583 33.7631 25.455 30.2254 25.455 25.8773V19.4357H29.1217C29.1491 19.4357 29.1714 19.4577 29.1714 19.4847V35.868C28.1593 36.8368 27.529 38.1896 27.529 39.6853C27.529 41.1809 28.1593 42.5337 29.1714 43.5022V43.7808C29.1714 43.8079 29.1491 43.8301 29.1217 43.8301H25.2078C24.8425 43.8301 24.5465 44.1212 24.5465 44.4805C24.5465 44.8398 24.8425 45.1309 25.2078 45.1309H29.1217C29.6658 45.1309 30.1355 44.8176 30.3573 44.3651C31.127 44.7787 32.0094 45.0141 32.9466 45.0141C35.9339 45.0141 38.3643 42.6236 38.3643 39.6853C38.3643 36.7467 35.9339 34.3561 32.9466 34.3561ZM26.8701 18.1346C26.2456 15.9744 24.2997 14.425 22.0032 14.2839C22.7688 13.4575 23.8668 12.9614 25.0347 12.9614C27.2924 12.9614 29.1296 14.7684 29.1296 16.9891C29.1296 17.3815 29.0722 17.7648 28.961 18.1346H26.8701ZM17.8452 18.1346C18.4464 16.6133 19.9436 15.5732 21.6606 15.5732C23.3765 15.5732 24.8748 16.6136 25.4763 18.1346H17.8452ZM19.8598 7.34963H19.8633C20.3422 7.35267 20.8764 7.96153 21.2568 8.93916C21.3564 9.19479 21.5775 9.38492 21.8484 9.44739C22.1192 9.50986 22.4032 9.43658 22.6085 9.25153C23.3119 8.61565 23.9996 8.33097 24.403 8.50927C24.792 8.68116 25.0272 9.31637 25.0317 10.2089C25.033 10.4804 25.17 10.7343 25.398 10.8873C25.6259 11.0403 25.9157 11.0731 26.1735 10.9755C27.0391 10.6465 27.7394 10.6303 28.0467 10.9309C28.3358 11.2135 28.3392 11.8278 28.081 12.5853C27.2124 12.0021 26.1632 11.6606 25.0347 11.6606C23.0479 11.6606 21.2136 12.7453 20.2718 14.4493C20.0706 14.5017 19.8739 14.5652 19.6823 14.6391C19.4499 13.4258 18.799 12.357 17.8823 11.5833C18.0533 9.06985 19.0345 7.34963 19.8598 7.34963ZM14.3591 11.5985C16.5097 11.5985 18.2771 13.238 18.4405 15.3128C17.4981 15.997 16.7857 16.978 16.4517 18.1346H13.9784C13.5417 17.2704 13.0648 16.3445 12.5573 15.3766C12.1165 14.5358 11.6911 13.7361 11.2795 12.9743C12.0533 12.1074 13.1764 11.5985 14.3591 11.5985ZM8.07766 9.94819C7.06245 10.3794 6.28071 10.5388 5.8773 10.5483C6.11282 10.2352 6.67965 9.71653 7.61246 9.15731C7.76489 9.41362 7.92008 9.67736 8.07766 9.94819ZM7.37385 18.0056C4.83463 13.161 3.14479 9.53654 2.20821 6.92413C0.765219 2.89881 1.47693 2.2967 1.63417 2.217C1.79176 2.13731 2.70328 1.91612 5.19993 5.40687C5.73379 6.15318 6.31126 7.02983 6.93645 8.04157C5.844 8.70108 3.93581 10.0633 4.54486 11.225C4.78519 11.6836 5.27408 11.8487 5.85361 11.8487C6.80256 11.8484 7.99355 11.4057 8.72998 11.0859C9.09458 11.7302 10.323 13.9772 10.5118 14.3305C9.44649 14.7961 8.62492 14.9687 8.20469 14.9792C8.24555 14.9245 8.29945 14.8593 8.36914 14.784C8.61531 14.5186 8.59608 14.1069 8.32623 13.8648C8.05672 13.623 7.63821 13.6416 7.39204 13.907C6.6309 14.7276 6.68652 15.3108 6.8671 15.6552C7.09644 16.0929 7.57847 16.2695 8.18924 16.2695C9.03073 16.2695 10.117 15.9338 11.1257 15.4857C11.2105 15.6465 12.4997 18.1343 12.4997 18.1343H7.44148L7.37385 18.0056ZM24.1321 25.8773C24.1321 29.5082 21.1291 32.462 17.4377 32.462C13.7466 32.462 10.7436 29.5082 10.7436 25.8773V19.4357H11.9174V21.4383C11.9174 21.7976 12.2137 22.0887 12.5786 22.0887C12.9439 22.0887 13.2402 21.7976 13.2402 21.4383V19.4357C13.2402 19.4357 13.565 19.4364 13.5688 19.4364C13.5736 19.4364 21.6355 19.4357 21.6355 19.4357V25.8773C21.6355 28.154 19.7524 30.0059 17.4377 30.0059C15.1233 30.0059 13.2402 28.154 13.2402 25.8773V24.5238C13.2402 24.1645 12.9443 23.873 12.579 23.873C12.2137 23.873 11.9174 24.1645 11.9174 24.5238V25.8773C11.9174 28.8713 14.3941 31.3071 17.438 31.3071C20.4819 31.3071 22.9583 28.8713 22.9583 25.8773V19.4357H24.1321V25.8773ZM32.9466 43.713C30.6886 43.713 28.8518 41.906 28.8518 39.6853C28.8518 37.4643 30.6886 35.6572 32.9466 35.6572C35.2047 35.6572 37.0414 37.4643 37.0414 39.6853C37.0414 41.906 35.2047 43.713 32.9466 43.713Z" fill="#595959"/>
</svg>
