<svg width="39" height="46" viewBox="0 0 39 46" fill="none" xmlns="http://www.w3.org/2000/svg">
<path d="M7.40134 9.90634C7.40134 10.4209 6.9777 10.8376 6.45458 10.8376C5.93146 10.8376 5.50781 10.4209 5.50781 9.90634C5.50781 9.3918 5.93146 8.9751 6.45458 8.9751C6.9777 8.9751 7.40134 9.3918 7.40134 9.90634Z" fill="#595959"/>
<path d="M32.9466 34.3564C32.0643 34.3564 31.2314 34.5664 30.4946 34.9358V19.4849C30.4946 19.1631 30.3793 18.868 30.1877 18.6356C30.3628 18.1061 30.4524 17.5547 30.4524 16.9897C30.4524 15.6612 29.9546 14.4462 29.1347 13.5121C29.7891 12.0148 29.7396 10.7522 28.9795 10.0085C28.3773 9.41961 27.4459 9.26731 26.3167 9.56245C26.1842 8.44434 25.708 7.65954 24.9448 7.32252C24.149 6.97132 23.1993 7.16921 22.2253 7.87668C21.629 6.71231 20.7923 6.05448 19.8715 6.04907C19.8677 6.04907 19.8636 6.04907 19.8595 6.04907C18.2641 6.04907 16.9838 7.98609 16.6305 10.7906C15.9391 10.4752 15.17 10.298 14.3594 10.298C12.959 10.298 11.6218 10.8362 10.6227 11.7706C5.83027 3.07364 3.05793 0.0316853 1.0282 1.06098C-1.2288 2.20543 0.150671 7.00576 5.95386 18.1348H5.75405C4.99702 18.1348 4.38144 18.7403 4.38144 19.4849V43.7811C4.38144 44.5254 4.99702 45.1312 5.75405 45.1312H22.0962C22.4615 45.1312 22.7578 44.8398 22.7578 44.4804C22.7578 44.1211 22.4615 43.83 22.0962 43.83H5.75405C5.72624 43.83 5.70392 43.8081 5.70392 43.7811V19.4849C5.70392 19.4579 5.72624 19.436 5.75405 19.436H9.42074V25.8775C9.42074 30.2257 13.0171 33.7634 17.4377 33.7634C21.8583 33.7634 25.455 30.2257 25.455 25.8775V19.436H29.1217C29.1491 19.436 29.1714 19.4579 29.1714 19.4849V35.8682C28.1593 36.8371 27.529 38.1899 27.529 39.6855C27.529 41.1812 28.1593 42.534 29.1714 43.5025V43.7811C29.1714 43.8081 29.1491 43.8304 29.1217 43.8304H25.2078C24.8425 43.8304 24.5465 44.1215 24.5465 44.4808C24.5465 44.8401 24.8425 45.1312 25.2078 45.1312H29.1217C29.6658 45.1312 30.1355 44.8178 30.3573 44.3653C31.127 44.779 32.0094 45.0143 32.9466 45.0143C35.9339 45.0143 38.3643 42.6238 38.3643 39.6855C38.3643 36.7469 35.9339 34.3564 32.9466 34.3564V34.3564ZM26.8701 18.1348C26.2456 15.9746 24.2997 14.4253 22.0032 14.2841C22.7688 13.4578 23.8668 12.9617 25.0347 12.9617C27.2924 12.9617 29.1296 14.7687 29.1296 16.9894C29.1296 17.3818 29.0722 17.7651 28.961 18.1348H26.8701ZM17.8452 18.1348C18.4464 16.6135 19.9436 15.5734 21.6606 15.5734C23.3765 15.5734 24.8748 16.6139 25.4763 18.1348H17.8452ZM19.8598 7.34987H19.8633C20.3422 7.35291 20.8764 7.96178 21.2568 8.9394C21.3564 9.19504 21.5775 9.38516 21.8484 9.44763C22.1192 9.51011 22.4032 9.43683 22.6085 9.25177C23.3119 8.61589 23.9996 8.33121 24.403 8.50952C24.792 8.6814 25.0272 9.31661 25.0316 10.2091C25.033 10.4806 25.17 10.7346 25.398 10.8876C25.6259 11.0405 25.9157 11.0733 26.1735 10.9757C27.0391 10.6468 27.7394 10.6306 28.0467 10.9311C28.3358 11.2138 28.3392 11.828 28.081 12.5855C27.2124 12.0023 26.1632 11.6609 25.0347 11.6609C23.0479 11.6609 21.2136 12.7456 20.2718 14.4496C20.0706 14.5019 19.8739 14.5654 19.6823 14.6394C19.4499 13.426 18.799 12.3572 17.8823 11.5836C18.0533 9.07009 19.0345 7.34987 19.8598 7.34987V7.34987ZM14.3591 11.5988C16.5097 11.5988 18.2771 13.2383 18.4405 15.3131C17.4981 15.9972 16.7857 16.9782 16.4517 18.1348H13.9784C13.5417 17.2707 13.0648 16.3447 12.5573 15.3769C12.1165 14.536 11.6911 13.7364 11.2795 12.9745C12.0533 12.1077 13.1764 11.5988 14.3591 11.5988ZM8.07766 9.94844C7.06245 10.3797 6.28071 10.5391 5.8773 10.5485C6.11282 10.2355 6.67965 9.71678 7.61246 9.15755C7.76489 9.41386 7.92008 9.6776 8.07766 9.94844ZM7.37385 18.0058C4.83463 13.1613 3.14479 9.53679 2.20821 6.92438C0.765219 2.89905 1.47693 2.29694 1.63417 2.21725C1.79176 2.13755 2.70328 1.91636 5.19993 5.40711C5.73379 6.15342 6.31126 7.03008 6.93645 8.04181C5.844 8.70133 3.93581 10.0636 4.54486 11.2253C4.78519 11.6839 5.27408 11.849 5.85361 11.849C6.80256 11.8486 7.99355 11.4059 8.72998 11.0861C9.09458 11.7305 10.323 13.9775 10.5118 14.3307C9.44649 14.7964 8.62492 14.9689 8.20469 14.9794C8.24555 14.9247 8.29945 14.8595 8.36914 14.7842C8.61531 14.5188 8.59608 14.1071 8.32623 13.865C8.05672 13.6232 7.63821 13.6418 7.39204 13.9072C6.6309 14.7278 6.68652 15.311 6.8671 15.6555C7.09644 16.0931 7.57847 16.2697 8.18924 16.2697C9.03073 16.2697 10.117 15.9341 11.1257 15.486C11.2105 15.6467 12.4997 18.1345 12.4997 18.1345H7.44148L7.37385 18.0058ZM24.1321 25.8775C24.1321 29.5084 21.1291 32.4622 17.4377 32.4622C13.7466 32.4622 10.7436 29.5084 10.7436 25.8775V19.436H11.9174V21.4385C11.9174 21.7978 12.2137 22.0889 12.5786 22.0889C12.9439 22.0889 13.2402 21.7978 13.2402 21.4385V19.436C13.2402 19.436 13.565 19.4367 13.5688 19.4367C13.5736 19.4367 21.6355 19.436 21.6355 19.436V25.8775C21.6355 28.1542 19.7524 30.0062 17.4377 30.0062C15.1233 30.0062 13.2402 28.1542 13.2402 25.8775V24.524C13.2402 24.1647 12.9443 23.8733 12.579 23.8733C12.2137 23.8733 11.9174 24.1647 11.9174 24.524V25.8775C11.9174 28.8715 14.3941 31.3073 17.438 31.3073C20.4819 31.3073 22.9583 28.8715 22.9583 25.8775V19.436H24.1321V25.8775ZM32.9466 43.7132C30.6886 43.7132 28.8518 41.9062 28.8518 39.6855C28.8518 37.4645 30.6886 35.6575 32.9466 35.6575C35.2047 35.6575 37.0414 37.4645 37.0414 39.6855C37.0414 41.9062 35.2047 43.7132 32.9466 43.7132V43.7132Z" fill="#595959"/>
</svg>
